<?xml version="1.0" encoding="UTF-8"?>
<svg id="Layer_2" data-name="Layer 2" xmlns="http://www.w3.org/2000/svg" viewBox="0 0 48 48">
  <defs>
    <style>
      .cls-1 {
        fill: #937058;
        stroke: #fff;
        stroke-miterlimit: 10;
        stroke-width: 2px;
      }

      .cls-2 {
        fill: #fff;
        stroke-width: 0px;
      }
    </style>
  </defs>
  <g id="Layer_1-2" data-name="Layer 1">
    <g>
      <circle class="cls-1" cx="24" cy="24" r="23"/>
      <path class="cls-2" d="m39.47,33.65c-.09-.1-.15-.06-.22.05-.2.33-.4.65-.6.98-.12.19-.12.19-.28.03-1.67-1.76-3.2-3.63-4.63-5.58-1.77-2.41-3.38-4.92-4.86-7.51-1.04-1.82-2.03-3.66-2.93-5.55-.56-1.17-1.07-2.35-1.61-3.53-.05-.1-.09-.21-.14-.31-.02-.06-.04-.12-.06-.18.54-1.14,1.12-2.26,1.75-3.35l-.66-.34c-.47,1.03-.9,2.08-1.28,3.14-.39-1.06-.82-2.11-1.28-3.14l-.66.34c.63,1.09,1.21,2.21,1.75,3.35-.05.13-.09.26-.14.4-.71,1.54-1.4,3.09-2.14,4.61-1.32,2.71-2.82,5.34-4.44,7.89-1.45,2.27-2.99,4.48-4.7,6.56-.89,1.08-1.84,2.12-2.76,3.18-.13.15-.15.14-.26-.03-.19-.31-.38-.62-.57-.93-.05-.08-.09-.19-.23-.09-.21.16-.23.21-.11.34.27.3.54.6.81.88.05.05.17.09.24.08.82-.12,1.63-.26,2.45-.36.6-.07,1.22-.1,1.82-.13,1.5-.08,2.99,0,4.47.18.57.07,1.15.17,1.72.27.15.03.23-.03.29-.16,1.16-2.2,2.17-4.47,2.91-6.85.3-.98.56-1.96.73-2.97.02-.09.05-.17.08-.27.03.03.04.04.04.05.14.66.26,1.32.43,1.97.21.78.44,1.55.71,2.31.26.75.54,1.49.87,2.21.54,1.19,1.13,2.37,1.69,3.55.07.15.16.18.31.15.45-.08.89-.17,1.34-.23,1.66-.21,3.33-.31,5.01-.21,1.39.08,2.78.21,4.14.5.07.02.18-.03.23-.08.29-.3.57-.61.85-.92.17-.18-.04-.22-.12-.31Z"/>
    </g>
  </g>
</svg>