<?xml version="1.0" encoding="UTF-8"?>
<svg id="Layer_2" data-name="Layer 2" xmlns="http://www.w3.org/2000/svg" viewBox="0 0 48 48">
  <defs>
    <style>
      .cls-1 {
        fill: #e2cb6a;
        stroke: #fff;
        stroke-miterlimit: 10;
        stroke-width: 2px;
      }

      .cls-2 {
        fill: #fff;
        stroke-width: 0px;
      }
    </style>
  </defs>
  <g id="Layer_1-2" data-name="Layer 1">
    <g>
      <g>
        <circle class="cls-1" cx="24" cy="24" r="23"/>
        <path class="cls-2" d="m24,48C10.77,48,0,37.23,0,24S10.77,0,24,0s24,10.77,24,24-10.77,24-24,24Zm0-46C11.87,2,2,11.87,2,24s9.87,22,22,22,22-9.87,22-22S36.13,2,24,2Z"/>
      </g>
      <g id="_30ifKQ.tif" data-name="30ifKQ.tif">
        <g>
          <path class="cls-2" d="m22.22,10.25c.07-.34-.24-.53-.45-.77-.02-.01-.05,0-.06,0-.15.18-.45.35-.45.6,0,.72-.03,2.3-.04,3.03,0,0-.02,1.86-.02,1.86,0,.26.03.65-.15.88-.34.57-1.31.55-1.61-.03-.16-.27-.12-.58-.13-.88v-1.86s.01-1.86.01-1.86c0-.18.02-1.03-.02-1.19-.09-.26-.32-.47-.49-.67-.06-.04-.15-.02-.19.03-.14.19-.4.36-.48.61-.05.16-.01,1.04-.03,1.2,0,.93-.02,2.81-.02,3.74,0,.25.03.65-.1.88-.27.53-1.26.55-1.55,0-.17-.25-.16-.54-.15-.86v-1.87s0-1.87,0-1.87c-.05-.5.11-.96-.07-1.44-.11-.17-.26-.27-.36-.38-.05-.05-.13-.06-.19-.01-.19.15-.49.28-.57.54,0,.72.01,2.18,0,2.91,0,0,.01,3.56.01,3.56,0,.86-.13,1.92.65,2.6.6.51,1.54.82,1.54,1.66,0,.32-.07,1.87-.08,2.22-.19,4.03-.73,8.39-1.1,12.43-.79,3.74,5.81,3.96,5.3.21l-.08-.89c-.34-3.85-.84-8.58-1.23-12.42-.63-3.59,2.16-2.32,2.11-4.67v-3.56c-.01-.9-.01-2.85,0-3.73Zm-3.76,25.78c-.35-.1-.55-.42-.49-.74.03-.4.5-.53.89-.39.39.1.5.47.63.76-.32.13-.67.46-1.03.36Z"/>
          <path class="cls-2" d="m31.21,11.74c-.02-.53,0-1.35-.08-1.87l-.18-.05s-.01,0-.02,0c-2.93,2.85-4.36,6.65-4.19,10.4.1,1.19.17,4.93,1.67,5.34.35.12.24.41.2.68l-.15.92-.6,3.7s-.59,3.7-.59,3.7c-.09.91-.57,1.99.11,2.77.65.81,2.16,1,3.06.37.59-.42.79-1.1.78-1.73-.01-1.24-.01-2.49,0-3.73.08-6.5.09-14.04,0-20.51Zm-1.47,23.91c0,.34-.18.68-.63.71-.86,0-.99-1.23-.1-1.29.46-.08.79.2.73.58Z"/>
        </g>
      </g>
    </g>
  </g>
</svg>