<?xml version="1.0" encoding="UTF-8"?>
<svg id="Layer_2" data-name="Layer 2" xmlns="http://www.w3.org/2000/svg" viewBox="0 0 48 48">
  <defs>
    <style>
      .cls-1 {
        fill: #4d7791;
        stroke: #fff;
        stroke-miterlimit: 10;
        stroke-width: 2px;
      }

      .cls-2 {
        fill: #fff;
        stroke-width: 0px;
      }
    </style>
  </defs>
  <g id="Layer_1-2" data-name="Layer 1">
    <g>
      <g>
        <circle class="cls-1" cx="24" cy="24" r="23"/>
        <path class="cls-2" d="m24,48C10.77,48,0,37.23,0,24S10.77,0,24,0s24,10.77,24,24-10.77,24-24,24Zm0-46C11.87,2,2,11.87,2,24s9.87,22,22,22,22-9.87,22-22S36.13,2,24,2Z"/>
      </g>
      <g id="VsAFLI.tif">
        <g>
          <path class="cls-2" d="m25.11,19.86c-.12.43-.22.81-.32,1.19-.19.78-.37,1.56-.57,2.33-.08.33-.02.61.16.88.76,1.12,1.51,2.24,2.29,3.34.3.42.46.86.45,1.37-.02,2.62-.04,5.24-.06,7.86,0,.56-.37.93-1.09,1.03-.34.04-.71-.04-1.04-.15-.32-.12-.48-.41-.49-.78-.04-1.68-.1-3.36-.16-5.04-.02-.63-.09-1.25-.15-1.88-.01-.15-.08-.31-.17-.42-.37-.47-.75-.93-1.14-1.39-.03-.04-.09-.06-.17-.11-.21.51-.45.98-.61,1.48-.38,1.18-1.11,2.15-1.81,3.15-1.02,1.44-2.03,2.89-3.03,4.34-.43.62-1.12.83-1.81.54-.64-.27-.84-.98-.43-1.6,1.02-1.56,2-3.14,3.08-4.66.68-.95.89-2.01,1.01-3.12.12-1.08.27-2.15.4-3.22.07-.58.12-1.15.21-1.73.04-.26,1.76-8.67,3.01-9.26,1.2-.25,2.14.12,2.83,1.13.86,1.25,1.74,2.48,2.61,3.72.13.19.28.28.52.3.95.06,1.91.15,2.86.23.36.03.42-.01.47-.38.16-1.23.33-2.45.49-3.68.04-.28.21-.44.43-.4.26.04.35.22.32.46-.06.47-.12.94-.18,1.41-.11.81-.24,1.62-.34,2.44-.01.1.02.24.09.31.22.22.28.49.25.77-.06.49-.2.96-.56,1.34-.09.1-.15.25-.17.38-.2,1.35-.38,2.7-.57,4.05-.12.87-.24,1.74-.36,2.61-.14.99-.27,1.97-.41,2.96-.12.87-.24,1.74-.36,2.61-.15,1.1-.3,2.2-.46,3.3-.03.23-.18.37-.42.34-.24-.04-.34-.21-.32-.44.03-.33.08-.65.13-.98.13-.93.27-1.85.4-2.78.12-.88.24-1.76.36-2.64.13-.97.27-1.93.4-2.9.12-.87.24-1.74.36-2.61.14-.99.26-1.99.42-2.98.13-.82.15-.81-.66-.84-1.18-.05-2.36-.11-3.53-.15-.25,0-.44-.1-.61-.27-.43-.42-.87-.82-1.31-1.23-.07-.06-.14-.12-.26-.22Z"/>
          <path class="cls-2" d="m27.26,9.97c-.05.94-.18,1.61-.45,2.24-.41.95-1.2,1.11-2.07.88-.75-.2-1.34-.7-1.49-1.5-.1-.54-.06-1.11-.06-1.67,0-.2.04-.4.11-.59.2-.57.68-.84,1.23-.93.77-.13,1.5.02,2.14.48.46.33.62.8.58,1.1Z"/>
        </g>
      </g>
      <path class="cls-2" d="m21.97,13.88c-.25-.36-.44-.75-.7-1.1-.16-.22-.37-.46-.61-.53-.43-.13-.89-.14-1.34-.19-.32-.04-.53.12-.66.41-.29.68-.62,1.35-.88,2.04-.25.69-.46,1.39-.63,2.1-.16.65-.25,1.33-.37,1.99-.17.99-.35,1.98-.51,2.97-.02.13,0,.27.03.4.14.49.53.66.99.72.56.08,1.13.15,1.69.22.13.02,1.07-3.76,1.59-5.43s1.4-3.6,1.4-3.6Z"/>
    </g>
  </g>
</svg>