<?xml version="1.0" encoding="UTF-8"?>
<svg id="Layer_2" data-name="Layer 2" xmlns="http://www.w3.org/2000/svg" viewBox="0 0 50 49.73">
  <defs>
    <style>
      .cls-1, .cls-2 {
        stroke-width: 0px;
      }

      .cls-2 {
        fill: #f5e54b;
      }
    </style>
  </defs>
  <g id="Layer_1-2" data-name="Layer 1">
    <g>
      <path class="cls-1" d="m50,23.44v2.8c-.11.07-.07.18-.08.27-.11,1.41-.3,2.81-.65,4.18-1.64,6.45-5.26,11.48-10.83,15.09-3.16,2.05-6.64,3.27-10.38,3.73-.57.07-1.15.04-1.71.21h-2.8c-.05-.08-.13-.07-.2-.08-.68-.05-1.36-.11-2.03-.22-5.68-.86-10.54-3.32-14.47-7.51C1.47,36.21-.73,29.39.21,21.6c.62-5.09,2.68-9.57,6.15-13.32C12.42,1.74,19.96-.94,28.76.29c6.29.88,11.48,3.91,15.55,8.8,3.08,3.7,4.89,7.97,5.49,12.76.07.53.03,1.07.21,1.59Zm-17.17,2.39c.08.17.14.28.19.39,1.28,2.74,2.56,5.47,3.85,8.21.05.11.08.27.23.27.15,0,.17-.17.21-.28,2.2-5.36,4.4-10.71,6.61-16.07.1-.24.12-.34-.21-.34-1.26.02-2.53.02-3.79,0-.26,0-.35.1-.43.32-.63,1.69-1.28,3.37-1.92,5.05-.28.74-.57,1.48-.87,2.26-.06-.12-.09-.17-.12-.23-1.14-2.46-2.27-4.91-3.42-7.37-.07-.15-.09-.42-.27-.41-.17,0-.19.27-.26.43-.91,2.04-1.81,4.08-2.71,6.11-.21.47-.41.94-.64,1.46-.08-.17-.13-.28-.18-.4-.92-2.29-1.84-4.58-2.75-6.88-.09-.24-.2-.35-.48-.35-1.33.02-2.65.02-3.98,0-.29,0-.3.07-.2.31,2.24,5.36,4.47,10.72,6.7,16.07.05.11.06.27.21.28.18,0,.19-.17.25-.29.44-.94.87-1.87,1.3-2.81.88-1.9,1.76-3.79,2.67-5.75Zm-24.5.38c0,2.6,0,5.2,0,7.8,0,.28.05.39.36.39,1.24-.02,2.47-.02,3.71,0,.28,0,.36-.07.36-.36-.02-1.3,0-2.6-.02-3.9,0-.37.09-.46.46-.46,1.23,0,2.47.08,3.7-.17,4.3-.88,6.14-5.97,3.35-9.35-1.27-1.54-3.01-2.1-4.94-2.13-2.2-.04-4.39,0-6.59-.02-.31,0-.4.08-.4.39.01,2.6,0,5.2,0,7.8Z"/>
      <path class="cls-2" d="m32.83,25.83c-.91,1.96-1.79,3.85-2.67,5.75-.43.94-.87,1.87-1.3,2.81-.06.12-.06.3-.25.29-.16,0-.17-.17-.21-.28-2.23-5.36-4.46-10.72-6.7-16.07-.1-.24-.09-.32.2-.31,1.33.01,2.65.02,3.98,0,.28,0,.39.11.48.35.91,2.3,1.83,4.59,2.75,6.88.05.11.1.22.18.4.23-.52.44-.99.64-1.46.9-2.04,1.8-4.08,2.71-6.11.07-.16.09-.42.26-.43.18,0,.2.26.27.41,1.14,2.45,2.28,4.91,3.42,7.37.03.06.06.11.12.23.3-.79.58-1.52.87-2.26.64-1.68,1.28-3.37,1.92-5.05.08-.21.17-.32.43-.32,1.26.02,2.53.02,3.79,0,.33,0,.31.1.21.34-2.2,5.36-4.4,10.71-6.61,16.07-.05.11-.06.28-.21.28-.15,0-.17-.16-.23-.27-1.28-2.74-2.56-5.47-3.85-8.21-.05-.11-.11-.22-.19-.39Z"/>
      <path class="cls-2" d="m8.33,26.21c0-2.6,0-5.2,0-7.8,0-.32.08-.4.4-.39,2.2.01,4.39-.02,6.59.02,1.93.03,3.67.59,4.94,2.13,2.79,3.38.95,8.47-3.35,9.35-1.23.25-2.46.18-3.7.17-.37,0-.46.09-.46.46.02,1.3,0,2.6.02,3.9,0,.29-.08.36-.36.36-1.24-.02-2.47-.02-3.71,0-.32,0-.36-.11-.36-.39,0-2.6,0-5.2,0-7.8Zm4.42-2.31c0,.62,0,1.24,0,1.86,0,.14-.02.27.2.27.73-.01,1.47.03,2.2-.03,1.27-.1,1.9-.87,1.9-2.18,0-1.2-.69-1.95-1.92-2.04-.7-.05-1.41-.02-2.12-.03-.2,0-.26.08-.25.27,0,.63,0,1.26,0,1.89Z"/>
      <path class="cls-1" d="m12.76,23.89c0-.63,0-1.26,0-1.89,0-.19.05-.27.25-.27.71.02,1.42-.02,2.12.03,1.23.09,1.91.84,1.92,2.04,0,1.31-.63,2.08-1.9,2.18-.73.06-1.46.01-2.2.03-.22,0-.2-.13-.2-.27,0-.62,0-1.24,0-1.86Z"/>
    </g>
  </g>
</svg>